# Blender 5.1.2
# www.blender.org
o Plane.005
v -0.000000 0.100000 -1.950000
v -0.000000 -0.000000 -1.950000
v -0.000000 0.100000 -2.200000
v -0.000000 -0.000000 -2.200000
v -0.000000 0.200000 -1.950000
v -0.000000 -0.100000 -1.950000
v -0.000000 0.200000 -2.200000
v -0.000000 -0.100000 -2.200000
v -0.000000 1.900000 0.050000
v -0.000000 1.900000 -0.050000
v -0.000000 2.150000 0.050000
v -0.000000 2.150000 -0.050000
v -0.000000 1.900000 0.150000
v -0.000000 1.900000 -0.150000
v -0.000000 2.150000 0.150000
v -0.000000 2.150000 -0.150000
v 0.000000 0.000000 0.050000
v 1.900000 0.000000 0.050000
v 1.900000 0.000000 -0.050000
v 0.000000 0.000000 -0.050000
v 2.150000 0.000000 0.050000
v 2.150000 0.000000 -0.050000
v 1.900000 0.000000 0.150000
v 1.900000 0.000000 -0.150000
v 2.150000 0.000000 0.150000
v 2.150000 0.000000 -0.150000
v -0.000000 0.100000 -0.050000
v 0.000000 0.100000 0.050000
v -0.000000 1.900000 0.000000
v -0.000000 2.150000 0.000000
v 1.900000 0.000000 -0.000000
v 2.150000 0.000000 -0.000000
v 0.000000 0.000000 0.000000
v 0.000000 0.100000 0.000000
vn -1.0000 -0.0000 -0.0000
vn -0.0000 -1.0000 -0.0000
vt 0.618657 0.138728
vt 0.618656 0.989233
vt 0.260046 0.989233
vt 0.260046 0.138728
vt 0.350354 0.331606
vt 0.367862 0.331606
vt 0.367862 0.375377
vt 0.350354 0.375377
vt 0.350354 0.331606
vt 0.367862 0.331606
vt 0.367862 0.375377
vt 0.813390 0.991770
vt 0.813390 0.131269
vt 0.631719 0.131269
vt 0.631719 0.991770
vt 0.769351 0.173215
vt 0.786860 0.173215
vt 0.786860 0.216986
vt 0.769351 0.216986
vt 0.786860 0.216986
vt 0.786860 0.173215
vt 0.015761 0.962830
vt 0.111020 0.962830
vt 0.111020 0.985788
vt 0.015761 0.985788
vt 0.059111 0.124430
vt 0.242272 0.124430
vt 0.242272 0.998610
vt 0.059111 0.998610
vt 0.066402 0.275835
vt 0.066402 0.232064
vt 0.083911 0.232064
vt 0.083911 0.275835
vt 0.083911 0.232064
vt 0.083911 0.275835
vt 0.066402 0.275835
vt 0.775005 0.936910
vt 0.769991 0.936910
vt 0.769991 0.913953
vt 0.775005 0.913953
vt 0.865250 0.936910
vt 0.865250 0.913953
vt 0.383632 0.927201
vt 0.478891 0.927201
vt 0.478891 0.973116
vt 0.383632 0.973116
vt 0.865250 0.959868
vt 0.775005 0.959868
vt 0.769991 0.959868
vt 0.059112 0.998610
vt 0.059111 0.124430
vt 0.242272 0.124430
vt 0.015761 0.939872
vt 0.111020 0.939872
vt 0.995061 0.991770
vt 0.995061 0.131269
s 0
f 1/1/1 3/2/1 4/3/1 2/4/1
f 4/5/1 8/6/1 6/7/1 2/8/1
f 1/9/1 5/10/1 7/11/1 3/8/1
f 29/12/1 30/13/1 12/14/1 10/15/1
f 12/16/1 16/17/1 14/18/1 10/19/1
f 9/20/1 13/19/1 15/16/1 11/21/1
f 31/22/2 33/23/2 20/24/2 19/25/2
f 31/26/2 19/27/2 22/28/2 32/29/2
f 22/30/2 19/31/2 24/32/2 26/33/2
f 18/34/2 21/35/2 25/36/2 23/31/2
f 34/37/1 33/38/1 17/39/1 28/40/1
f 29/41/1 34/37/1 28/40/1 9/42/1
f 2/43/1 20/44/1 27/45/1 1/46/1
f 10/47/1 27/48/1 34/37/1 29/41/1
f 27/48/1 20/49/1 33/38/1 34/37/1
f 18/28/2 31/50/2 32/51/2 21/52/2
f 18/53/2 17/54/2 33/23/2 31/22/2
f 9/55/1 11/56/1 30/13/1 29/12/1
