# Blender 5.1.2
# www.blender.org
mtllib Comp2.mtl
o Circle
v -0.180427 -0.125000 -1.991845
v -0.590611 -0.125000 -1.910805
v -0.974984 -0.125000 -1.746255
v -1.316745 -0.125000 -1.505384
v -1.600959 -0.125000 -1.198721
v -1.815202 -0.125000 -0.839668
v -1.950112 -0.125000 -0.443918
v -1.999793 -0.125000 -0.028766
v -1.962074 -0.125000 0.387643
v -1.838602 -0.125000 0.787110
v -1.634775 -0.125000 1.152177
v -1.359500 -0.125000 1.466887
v -1.024808 -0.125000 1.717489
v -0.645328 -0.125000 1.893027
v -0.237643 -0.125000 1.985831
v 0.180427 -0.125000 1.991845
v 0.590611 -0.125000 1.910805
v 0.974984 -0.125000 1.746255
v 1.316745 -0.125000 1.505384
v 1.600959 -0.125000 1.198721
v 1.815202 -0.125000 0.839668
v 1.950112 -0.125000 0.443918
v 1.999793 -0.125000 0.028766
v 1.962074 -0.125000 -0.387643
v 1.838602 -0.125000 -0.787110
v 1.634775 -0.125000 -1.152177
v 1.359500 -0.125000 -1.466887
v 1.024808 -0.125000 -1.717489
v 0.645328 -0.125000 -1.893027
v 0.237643 -0.125000 -1.985831
v -0.180427 0.375000 -1.991845
v -0.590611 0.375000 -1.910805
v -0.974984 0.375000 -1.746255
v -1.316745 0.375000 -1.505384
v -1.600959 0.375000 -1.198721
v -1.815202 0.375000 -0.839668
v -1.950112 0.375000 -0.443918
v -1.999793 0.375000 -0.028766
v -1.962074 0.375000 0.387643
v -1.838602 0.375000 0.787110
v -1.634775 0.375000 1.152177
v -1.359500 0.375000 1.466887
v -1.024808 0.375000 1.717489
v -0.645328 0.375000 1.893027
v -0.237643 0.375000 1.985831
v 0.180427 0.375000 1.991845
v 0.590611 0.375000 1.910805
v 0.974984 0.375000 1.746255
v 1.316745 0.375000 1.505384
v 1.600959 0.375000 1.198721
v 1.815202 0.375000 0.839668
v 1.950112 0.375000 0.443918
v 1.999793 0.375000 0.028766
v 1.962074 0.375000 -0.387643
v 1.838602 0.375000 -0.787110
v 1.634775 0.375000 -1.152177
v 1.359500 0.375000 -1.466887
v 1.024808 0.375000 -1.717489
v 0.645328 0.375000 -1.893027
v 0.237643 0.375000 -1.985831
v -0.630652 -0.141949 -2.040348
v -0.192659 -0.141949 -2.126881
v -1.041084 -0.141949 -1.864641
v -1.406014 -0.141949 -1.607441
v -1.709495 -0.141949 -1.279988
v -1.938263 -0.141949 -0.896594
v -2.082319 -0.141949 -0.474013
v -2.135368 -0.141949 -0.030716
v -2.095091 -0.141949 0.413923
v -1.963250 -0.141949 0.840471
v -1.745604 -0.141949 1.230288
v -1.451667 -0.141949 1.566334
v -1.094285 -0.141949 1.833925
v -0.689079 -0.141949 2.021364
v -0.253755 -0.141949 2.120460
v 0.192659 -0.141949 2.126881
v 0.630652 -0.141949 2.040348
v 1.041083 -0.141949 1.864641
v 1.406014 -0.141949 1.607441
v 1.709495 -0.141949 1.279988
v 1.938263 -0.141949 0.896594
v 2.082319 -0.141949 0.474013
v 2.135368 -0.141949 0.030716
v 2.095091 -0.141949 -0.413923
v 1.963249 -0.141949 -0.840471
v 1.745604 -0.141949 -1.230289
v 1.451667 -0.141949 -1.566334
v 1.094285 -0.141949 -1.833925
v 0.689078 -0.141949 -2.021364
v 0.253755 -0.141949 -2.120460
v -0.630652 0.391949 -2.040348
v -0.192659 0.391949 -2.126881
v -1.041084 0.391949 -1.864641
v -1.406014 0.391949 -1.607441
v -1.709495 0.391949 -1.279988
v -1.938263 0.391949 -0.896594
v -2.082319 0.391949 -0.474013
v -2.135368 0.391949 -0.030716
v -2.095091 0.391949 0.413923
v -1.963250 0.391949 0.840471
v -1.745604 0.391949 1.230288
v -1.451667 0.391949 1.566334
v -1.094285 0.391949 1.833925
v -0.689079 0.391949 2.021364
v -0.253755 0.391949 2.120460
v 0.192659 0.391949 2.126881
v 0.630652 0.391949 2.040348
v 1.041083 0.391949 1.864641
v 1.406014 0.391949 1.607441
v 1.709495 0.391949 1.279988
v 1.938263 0.391949 0.896594
v 2.082319 0.391949 0.474013
v 2.135368 0.391949 0.030716
v 2.095091 0.391949 -0.413923
v 1.963249 0.391949 -0.840471
v 1.745604 0.391949 -1.230289
v 1.451667 0.391949 -1.566334
v 1.094285 0.391949 -1.833925
v 0.689078 0.391949 -2.021364
v 0.253755 0.391949 -2.120460
vn 0.7527 -0.0000 -0.6584
vn -0.8731 -0.0000 0.4875
vn 0.5994 -0.0000 -0.8005
vn -0.7527 -0.0000 0.6584
vn 0.4198 -0.0000 -0.9076
vn -0.5994 -0.0000 0.8005
vn 0.2220 -0.0000 -0.9751
vn 0.1938 -0.0000 0.9810
vn -0.4198 -0.0000 0.9076
vn 0.0144 -0.0000 -0.9999
vn 0.3936 -0.0000 0.9193
vn -0.2220 -0.0000 0.9751
vn -0.1938 -0.0000 -0.9810
vn 0.5761 -0.0000 0.8174
vn -0.0144 -0.0000 0.9999
vn -0.3936 -0.0000 -0.9193
vn 0.7334 -0.0000 0.6798
vn -0.5761 -0.0000 -0.8174
vn 0.8587 -0.0000 0.5124
vn -0.7334 -0.0000 -0.6798
vn 0.9465 -0.0000 0.3227
vn -0.8587 -0.0000 -0.5124
vn 0.9929 -0.0000 0.1188
vn -0.9465 -0.0000 -0.3227
vn 0.9959 -0.0000 -0.0902
vn -0.9929 -0.0000 -0.1188
vn 0.9554 -0.0000 -0.2953
vn -0.9959 -0.0000 0.0902
vn 0.8731 -0.0000 -0.4875
vn -0.9554 -0.0000 0.2953
vn -0.7334 -0.0000 -0.6797
vn 0.7334 -0.0000 0.6797
vn -0.1242 0.9922 0.0113
vn -0.0747 -0.9922 0.0998
vn 0.0242 -0.9922 0.1223
vn -0.1191 0.9922 0.0368
vn -0.0524 -0.9922 0.1132
vn 0.0491 -0.9922 0.1146
vn -0.1089 0.9922 0.0608
vn -0.0277 -0.9922 0.1216
vn 0.0718 -0.9922 0.1019
vn -0.0939 0.9922 0.0821
vn -0.0018 -0.9922 0.1247
vn 0.0915 -0.9922 0.0848
vn -0.0747 0.9922 0.0998
vn 0.0242 0.9922 0.1223
vn 0.1071 -0.9922 0.0639
vn -0.0524 0.9922 0.1132
vn 0.0491 0.9922 0.1146
vn 0.1180 -0.9922 0.0402
vn -0.0277 0.9922 0.1216
vn 0.0718 0.9922 0.1019
vn 0.1238 -0.9922 0.0148
vn -0.0018 0.9922 0.1247
vn 0.0915 0.9922 0.0848
vn 0.1242 -0.9922 -0.0113
vn 0.1071 0.9922 0.0639
vn 0.1191 -0.9922 -0.0368
vn 0.1180 0.9922 0.0402
vn 0.1089 -0.9922 -0.0608
vn 0.1238 0.9922 0.0148
vn 0.0939 -0.9922 -0.0821
vn 0.1242 0.9922 -0.0113
vn 0.0747 -0.9922 -0.0998
vn 0.1191 0.9922 -0.0368
vn 0.0524 -0.9922 -0.1132
vn 0.1089 0.9922 -0.0608
vn 0.0277 -0.9922 -0.1216
vn 0.0939 0.9922 -0.0821
vn 0.0018 -0.9922 -0.1247
vn 0.0747 0.9922 -0.0998
vn -0.0242 -0.9922 -0.1223
vn 0.0524 0.9922 -0.1132
vn -0.0491 -0.9922 -0.1146
vn 0.0277 0.9922 -0.1216
vn -0.0718 -0.9922 -0.1019
vn 0.0018 0.9922 -0.1247
vn -0.0915 -0.9922 -0.0848
vn -0.0242 0.9922 -0.1223
vn -0.1071 -0.9922 -0.0639
vn -0.0491 0.9922 -0.1146
vn -0.1180 -0.9922 -0.0402
vn -0.0718 0.9922 -0.1019
vn -0.1238 -0.9922 -0.0148
vn -0.0915 0.9922 -0.0848
vn -0.1242 -0.9922 0.0113
vn -0.1071 0.9922 -0.0639
vn -0.1191 -0.9922 0.0368
vn -0.1180 0.9922 -0.0402
vn -0.1089 -0.9922 0.0608
vn -0.1238 0.9922 -0.0148
vn -0.0939 -0.9922 0.0821
vt 0.783951 0.127931
vt 0.783951 0.549231
vt 0.719232 0.549231
vt 0.719232 0.127931
vt 0.846990 0.475429
vt 0.846990 0.896728
vt 0.782271 0.896728
vt 0.782271 0.475429
vt 0.654513 0.549231
vt 0.654513 0.127931
vt 0.717552 0.896728
vt 0.717552 0.475428
vt 0.589793 0.549230
vt 0.589793 0.127931
vt 0.652833 0.896728
vt 0.652833 0.475428
vt 0.525074 0.549230
vt 0.525074 0.127930
vt 0.458675 0.475428
vt 0.458675 0.896728
vt 0.393956 0.896728
vt 0.393956 0.475428
vt 0.588113 0.896728
vt 0.588113 0.475428
vt 0.460355 0.549230
vt 0.460355 0.127930
vt 0.329237 0.896728
vt 0.329237 0.475428
vt 0.523394 0.896728
vt 0.523394 0.475428
vt 0.395636 0.549230
vt 0.395636 0.127930
vt 0.264518 0.896728
vt 0.264518 0.475428
vt 0.330917 0.549230
vt 0.330917 0.127930
vt 0.199799 0.896728
vt 0.199799 0.475428
vt 0.266198 0.549230
vt 0.266198 0.127930
vt 0.135079 0.896728
vt 0.135079 0.475428
vt 0.201478 0.549229
vt 0.201478 0.127930
vt 0.070360 0.896728
vt 0.070360 0.475428
vt 0.136759 0.549229
vt 0.136759 0.127930
vt 0.005641 0.896728
vt 0.005641 0.475428
vt 0.072040 0.549229
vt 0.072040 0.127929
vt 0.978109 0.127932
vt 0.978109 0.549231
vt 0.913389 0.549231
vt 0.913389 0.127931
vt 0.007321 0.549229
vt 0.007321 0.127930
vt 0.848670 0.549231
vt 0.848670 0.127931
vt 0.976429 0.475429
vt 0.976429 0.896728
vt 0.911709 0.896728
vt 0.911710 0.475429
vt 0.397165 0.222143
vt 0.395367 0.222143
vt 0.395367 0.223403
vt 0.397165 0.223403
vt 0.390082 0.223403
vt 0.391880 0.223403
vt 0.391880 0.222143
vt 0.390082 0.222143
vt 0.393569 0.222143
vt 0.393569 0.223403
vt 0.393678 0.223403
vt 0.393678 0.222143
vt 0.391771 0.222143
vt 0.391771 0.223403
vt 0.395476 0.223403
vt 0.395476 0.222143
vt 0.389973 0.222143
vt 0.389973 0.223403
vt 0.400869 0.223403
vt 0.402667 0.223403
vt 0.402667 0.222143
vt 0.400869 0.222143
vt 0.397274 0.223403
vt 0.397274 0.222143
vt 0.388176 0.222143
vt 0.388176 0.223403
vt 0.404465 0.223403
vt 0.404465 0.222143
vt 0.399071 0.223403
vt 0.399071 0.222143
vt 0.386378 0.222143
vt 0.386378 0.223403
vt 0.406263 0.223403
vt 0.406263 0.222143
vt 0.384580 0.222143
vt 0.384580 0.223403
vt 0.408060 0.223403
vt 0.408060 0.222143
vt 0.382782 0.222143
vt 0.382782 0.223403
vt 0.409858 0.223403
vt 0.409858 0.222143
vt 0.380985 0.222143
vt 0.380985 0.223403
vt 0.411656 0.223403
vt 0.411656 0.222143
vt 0.379187 0.222143
vt 0.379187 0.223403
vt 0.413454 0.223403
vt 0.413454 0.222143
vt 0.377389 0.222143
vt 0.377389 0.223403
vt 0.402558 0.222143
vt 0.400760 0.222143
vt 0.400760 0.223403
vt 0.402558 0.223403
vt 0.375591 0.222143
vt 0.375591 0.223403
vt 0.398962 0.222143
vt 0.398962 0.223403
vt 0.386487 0.223403
vt 0.388285 0.223403
vt 0.388285 0.222143
vt 0.386487 0.222143
vt 0.499557 0.155139
vt 0.499752 0.156119
vt 0.500303 0.156115
vt 0.500094 0.155069
vt 0.529425 0.152625
vt 0.530792 0.152048
vt 0.530519 0.151769
vt 0.529060 0.152384
vt 0.535664 0.151447
vt 0.537311 0.151650
vt 0.537480 0.151343
vt 0.535721 0.151126
vt 0.499022 0.154204
vt 0.499522 0.154070
vt 0.532333 0.151650
vt 0.532164 0.151343
vt 0.538851 0.152048
vt 0.539125 0.151769
vt 0.498168 0.153354
vt 0.498611 0.153162
vt 0.533980 0.151447
vt 0.533923 0.151126
vt 0.540218 0.152625
vt 0.540584 0.152384
vt 0.497033 0.152625
vt 0.497399 0.152384
vt 0.541353 0.153353
vt 0.541796 0.153162
vt 0.495666 0.152049
vt 0.495940 0.151769
vt 0.489148 0.151650
vt 0.490795 0.151447
vt 0.490738 0.151126
vt 0.488979 0.151343
vt 0.542207 0.154204
vt 0.542707 0.154070
vt 0.494126 0.151650
vt 0.494295 0.151343
vt 0.487607 0.152049
vt 0.487334 0.151769
vt 0.542742 0.155139
vt 0.543279 0.155069
vt 0.492479 0.151447
vt 0.492536 0.151126
vt 0.486240 0.152625
vt 0.485875 0.152384
vt 0.542937 0.156119
vt 0.543488 0.156115
vt 0.485106 0.153354
vt 0.484663 0.153162
vt 0.446383 0.149948
vt 0.446188 0.150928
vt 0.446725 0.150999
vt 0.446933 0.149952
vt 0.484252 0.154204
vt 0.483751 0.154070
vt 0.445652 0.151864
vt 0.446153 0.151997
vt 0.483716 0.155139
vt 0.483179 0.155069
vt 0.444798 0.152714
vt 0.445241 0.152905
vt 0.483521 0.156119
vt 0.482971 0.156115
vt 0.443664 0.153443
vt 0.444030 0.153684
vt 0.583221 0.096794
vt 0.583416 0.097774
vt 0.583966 0.097770
vt 0.583758 0.096724
vt 0.442297 0.154019
vt 0.442570 0.154299
vt 0.582685 0.095859
vt 0.583186 0.095725
vt 0.440757 0.154417
vt 0.440925 0.154724
vt 0.581831 0.095008
vt 0.582274 0.094817
vt 0.439109 0.154621
vt 0.439166 0.154942
vt 0.580697 0.094279
vt 0.581063 0.094039
vt 0.437425 0.154621
vt 0.437368 0.154941
vt 0.589785 0.093997
vt 0.589511 0.094277
vt 0.435778 0.154417
vt 0.435609 0.154724
vt 0.591325 0.094396
vt 0.591156 0.094703
vt 0.434238 0.154019
vt 0.433965 0.154299
vt 0.576142 0.093101
vt 0.576199 0.092781
vt 0.432871 0.153443
vt 0.432505 0.153684
vt 0.574459 0.093101
vt 0.574401 0.092781
vt 0.431736 0.152714
vt 0.431293 0.152905
vt 0.572811 0.093305
vt 0.572642 0.092998
vt 0.430883 0.151864
vt 0.430382 0.151997
vt 0.571271 0.093703
vt 0.570998 0.093423
vt 0.430347 0.150928
vt 0.429810 0.150999
vt 0.569904 0.094279
vt 0.569538 0.094039
vt 0.430152 0.149948
vt 0.429601 0.149952
vt 0.568769 0.095008
vt 0.568326 0.094817
vt 0.526706 0.156119
vt 0.526901 0.155139
vt 0.526364 0.155069
vt 0.526156 0.156115
vt 0.567916 0.095859
vt 0.567415 0.095725
vt 0.527437 0.154204
vt 0.526936 0.154070
vt 0.567380 0.096794
vt 0.566843 0.096724
vt 0.528291 0.153353
vt 0.527848 0.153162
vt 0.567185 0.097774
vt 0.566634 0.097770
s 1
usemtl Material.002
f 11/1/1 41/2/1 42/3/1 12/4/1
f 25/5/2 55/6/2 56/7/2 26/8/2
f 12/4/3 42/3/3 43/9/3 13/10/3
f 26/8/4 56/7/4 57/11/4 27/12/4
f 13/10/5 43/9/5 44/13/5 14/14/5
f 27/12/6 57/11/6 58/15/6 28/16/6
f 14/14/7 44/13/7 45/17/7 15/18/7
f 1/19/8 31/20/8 32/21/8 2/22/8
f 28/16/9 58/15/9 59/23/9 29/24/9
f 15/18/10 45/17/10 46/25/10 16/26/10
f 2/22/11 32/21/11 33/27/11 3/28/11
f 29/24/12 59/23/12 60/29/12 30/30/12
f 16/26/13 46/25/13 47/31/13 17/32/13
f 3/28/14 33/27/14 34/33/14 4/34/14
f 30/30/15 60/29/15 31/20/15 1/19/15
f 17/32/16 47/31/16 48/35/16 18/36/16
f 4/34/17 34/33/17 35/37/17 5/38/17
f 18/36/18 48/35/18 49/39/18 19/40/18
f 5/38/19 35/37/19 36/41/19 6/42/19
f 19/40/20 49/39/20 50/43/20 20/44/20
f 6/42/21 36/41/21 37/45/21 7/46/21
f 20/44/22 50/43/22 51/47/22 21/48/22
f 7/46/23 37/45/23 38/49/23 8/50/23
f 21/48/24 51/47/24 52/51/24 22/52/24
f 8/53/25 38/54/25 39/55/25 9/56/25
f 22/52/26 52/51/26 53/57/26 23/58/26
f 9/56/27 39/55/27 40/59/27 10/60/27
f 23/61/28 53/62/28 54/63/28 24/64/28
f 10/60/29 40/59/29 41/2/29 11/1/29
f 24/64/30 54/63/30 55/6/30 25/5/30
f 71/65/4 72/66/4 102/67/4 101/68/4
f 85/69/29 86/70/29 116/71/29 115/72/29
f 72/66/6 73/73/6 103/74/6 102/67/6
f 86/70/1 87/75/1 117/76/1 116/71/1
f 73/73/9 74/77/9 104/78/9 103/74/9
f 87/75/3 88/79/3 118/80/3 117/76/3
f 74/77/12 75/81/12 105/82/12 104/78/12
f 62/83/13 61/84/13 91/85/13 92/86/13
f 88/79/5 89/87/5 119/88/5 118/80/5
f 75/81/15 76/89/15 106/90/15 105/82/15
f 61/84/16 63/91/16 93/92/16 91/85/16
f 89/87/7 90/93/7 120/94/7 119/88/7
f 76/89/8 77/95/8 107/96/8 106/90/8
f 63/91/18 64/97/18 94/98/18 93/92/18
f 90/93/10 62/83/10 92/86/10 120/94/10
f 77/95/11 78/99/11 108/100/11 107/96/11
f 64/97/31 65/101/31 95/102/31 94/98/31
f 78/99/14 79/103/14 109/104/14 108/100/14
f 65/101/22 66/105/22 96/106/22 95/102/22
f 79/103/32 80/107/32 110/108/32 109/104/32
f 66/105/24 67/109/24 97/110/24 96/106/24
f 80/107/19 81/111/19 111/112/19 110/108/19
f 67/109/26 68/113/26 98/114/26 97/110/26
f 81/111/21 82/115/21 112/116/21 111/112/21
f 68/117/28 69/118/28 99/119/28 98/120/28
f 82/115/23 83/121/23 113/122/23 112/116/23
f 69/118/30 70/123/30 100/124/30 99/119/30
f 83/125/25 84/126/25 114/127/25 113/128/25
f 70/123/2 71/65/2 101/68/2 100/124/2
f 84/126/27 85/69/27 115/72/27 114/127/27
f 54/129/33 53/130/33 113/131/33 114/132/33
f 27/133/34 28/134/34 88/135/34 87/136/34
f 1/137/35 2/138/35 61/139/35 62/140/35
f 55/141/36 54/129/36 114/132/36 115/142/36
f 28/134/37 29/143/37 89/144/37 88/135/37
f 2/138/38 3/145/38 63/146/38 61/139/38
f 56/147/39 55/141/39 115/142/39 116/148/39
f 29/143/40 30/149/40 90/150/40 89/144/40
f 3/145/41 4/151/41 64/152/41 63/146/41
f 57/153/42 56/147/42 116/148/42 117/154/42
f 30/149/43 1/137/43 62/140/43 90/150/43
f 4/151/44 5/155/44 65/156/44 64/152/44
f 58/157/45 57/153/45 117/154/45 118/158/45
f 32/159/46 31/160/46 92/161/46 91/162/46
f 5/155/47 6/163/47 66/164/47 65/156/47
f 59/165/48 58/157/48 118/158/48 119/166/48
f 33/167/49 32/159/49 91/162/49 93/168/49
f 6/163/50 7/169/50 67/170/50 66/164/50
f 60/171/51 59/165/51 119/166/51 120/172/51
f 34/173/52 33/167/52 93/168/52 94/174/52
f 7/169/53 8/175/53 68/176/53 67/170/53
f 31/160/54 60/171/54 120/172/54 92/161/54
f 35/177/55 34/173/55 94/174/55 95/178/55
f 8/179/56 9/180/56 69/181/56 68/182/56
f 36/183/57 35/177/57 95/178/57 96/184/57
f 9/180/58 10/185/58 70/186/58 69/181/58
f 37/187/59 36/183/59 96/184/59 97/188/59
f 10/185/60 11/189/60 71/190/60 70/186/60
f 38/191/61 37/187/61 97/188/61 98/192/61
f 11/189/62 12/193/62 72/194/62 71/190/62
f 39/195/63 38/196/63 98/197/63 99/198/63
f 12/193/64 13/199/64 73/200/64 72/194/64
f 40/201/65 39/195/65 99/198/65 100/202/65
f 13/199/66 14/203/66 74/204/66 73/200/66
f 41/205/67 40/201/67 100/202/67 101/206/67
f 14/203/68 15/207/68 75/208/68 74/204/68
f 42/209/69 41/205/69 101/206/69 102/210/69
f 15/207/70 16/211/70 76/212/70 75/208/70
f 43/213/71 42/209/71 102/210/71 103/214/71
f 16/211/72 17/215/72 77/216/72 76/212/72
f 44/217/73 43/213/73 103/214/73 104/218/73
f 17/215/74 18/219/74 78/220/74 77/216/74
f 45/221/75 44/217/75 104/218/75 105/222/75
f 18/219/76 19/223/76 79/224/76 78/220/76
f 46/225/77 45/221/77 105/222/77 106/226/77
f 19/223/78 20/227/78 80/228/78 79/224/78
f 47/229/79 46/225/79 106/226/79 107/230/79
f 20/227/80 21/231/80 81/232/80 80/228/80
f 48/233/81 47/229/81 107/230/81 108/234/81
f 21/231/82 22/235/82 82/236/82 81/232/82
f 49/237/83 48/233/83 108/234/83 109/238/83
f 22/235/84 23/239/84 83/240/84 82/236/84
f 50/241/85 49/237/85 109/238/85 110/242/85
f 23/243/86 24/244/86 84/245/86 83/246/86
f 51/247/87 50/241/87 110/242/87 111/248/87
f 24/244/88 25/249/88 85/250/88 84/245/88
f 52/251/89 51/247/89 111/248/89 112/252/89
f 25/249/90 26/253/90 86/254/90 85/250/90
f 53/255/91 52/251/91 112/252/91 113/256/91
f 26/253/92 27/133/92 87/136/92 86/254/92
