# Blender 5.1.2
# www.blender.org
mtllib SlopItems.mtl
o Cube
v 1.000000 1.000000 -1.000000
v 1.000000 -1.000000 -1.000000
v 1.000000 1.000000 1.000000
v 1.000000 -1.000000 1.000000
v -1.000000 1.000000 -1.000000
v -1.000000 -1.000000 -1.000000
v -1.000000 1.000000 1.000000
v -1.000000 -1.000000 1.000000
vn -0.0000 1.0000 -0.0000
vn -0.0000 -0.0000 1.0000
vn -1.0000 -0.0000 -0.0000
vn -0.0000 -1.0000 -0.0000
vn 1.0000 -0.0000 -0.0000
vn -0.0000 -0.0000 -1.0000
vt 0.625000 0.500000
vt 0.875000 0.500000
vt 0.875000 0.750000
vt 0.625000 0.750000
vt 0.375000 0.750000
vt 0.625000 1.000000
vt 0.375000 1.000000
vt 0.375000 0.000000
vt 0.625000 0.000000
vt 0.625000 0.250000
vt 0.375000 0.250000
vt 0.125000 0.500000
vt 0.375000 0.500000
vt 0.125000 0.750000
s 0
usemtl Material
f 1/1/1 5/2/1 7/3/1 3/4/1
f 4/5/2 3/4/2 7/6/2 8/7/2
f 8/8/3 7/9/3 5/10/3 6/11/3
f 6/12/4 2/13/4 4/5/4 8/14/4
f 2/13/5 1/1/5 3/4/5 4/5/5
f 6/11/6 5/10/6 1/1/6 2/13/6
o Cube.001
v -1.000000 -1.000000 4.186398
v 0.000000 1.000000 3.186397
v -1.000000 -1.000000 2.186397
v 1.000000 -1.000000 4.186398
v 1.000000 -1.000000 2.186397
vn -0.8944 0.4472 -0.0000
vn -0.0000 0.4472 -0.8944
vn 0.8944 0.4472 -0.0000
vn -0.0000 0.4472 0.8944
vn -0.0000 -1.0000 -0.0000
vt 0.375000 0.000000
vt 0.625000 0.250000
vt 0.375000 0.250000
vt 0.625000 0.500000
vt 0.375000 0.500000
vt 0.625000 0.750000
vt 0.375000 0.750000
vt 0.625000 1.000000
vt 0.375000 1.000000
vt 0.125000 0.500000
vt 0.125000 0.750000
s 0
f 9/15/7 10/16/7 11/17/7
f 11/17/8 10/18/8 13/19/8
f 13/19/9 10/20/9 12/21/9
f 12/21/10 10/22/10 9/23/10
f 11/24/11 13/19/11 12/21/11 9/25/11
o Icosphere
v 0.000000 -1.000000 -3.530260
v 0.723607 -0.447220 -3.004535
v -0.276388 -0.447220 -2.679611
v -0.894426 -0.447216 -3.530260
v -0.276388 -0.447220 -4.380909
v 0.723607 -0.447220 -4.055985
v 0.276388 0.447220 -2.679611
v -0.723607 0.447220 -3.004535
v -0.723607 0.447220 -4.055985
v 0.276388 0.447220 -4.380909
v 0.894426 0.447216 -3.530260
v 0.000000 1.000000 -3.530260
v -0.162456 -0.850654 -3.030265
v 0.425323 -0.850654 -3.221249
v 0.262869 -0.525738 -2.721248
v 0.850648 -0.525736 -3.530260
v 0.425323 -0.850654 -3.839272
v -0.525730 -0.850652 -3.530260
v -0.688189 -0.525736 -3.030263
v -0.162456 -0.850654 -4.030255
v -0.688189 -0.525736 -4.030257
v 0.262869 -0.525738 -4.339272
v 0.951058 0.000000 -3.221247
v 0.951058 0.000000 -3.839273
v 0.000000 0.000000 -2.530260
v 0.587786 0.000000 -2.721243
v -0.951058 0.000000 -3.221247
v -0.587786 0.000000 -2.721243
v -0.587786 0.000000 -4.339277
v -0.951058 0.000000 -3.839273
v 0.587786 0.000000 -4.339277
v 0.000000 0.000000 -4.530260
v 0.688189 0.525736 -3.030263
v -0.262869 0.525738 -2.721248
v -0.850648 0.525736 -3.530260
v -0.262869 0.525738 -4.339272
v 0.688189 0.525736 -4.030257
v 0.162456 0.850654 -3.030265
v 0.525730 0.850652 -3.530260
v -0.425323 0.850654 -3.221249
v -0.425323 0.850654 -3.839272
v 0.162456 0.850654 -4.030255
vn 0.1024 -0.9435 0.3151
vn 0.7002 -0.6617 0.2680
vn -0.2680 -0.9435 0.1947
vn -0.2680 -0.9435 -0.1947
vn 0.1024 -0.9435 -0.3151
vn 0.9050 -0.3304 0.2680
vn 0.0247 -0.3304 0.9435
vn -0.8897 -0.3304 0.3151
vn -0.5746 -0.3304 -0.7488
vn 0.5346 -0.3304 -0.7779
vn 0.8026 -0.1256 0.5831
vn -0.3066 -0.1256 0.9435
vn -0.9921 -0.1256 -0.0000
vn -0.3066 -0.1256 -0.9435
vn 0.8026 -0.1256 -0.5831
vn 0.4089 0.6617 0.6284
vn -0.4713 0.6617 0.5831
vn -0.7002 0.6617 -0.2680
vn 0.0385 0.6617 -0.7488
vn 0.7240 0.6617 -0.1947
vn 0.2680 0.9435 -0.1947
vn 0.4911 0.7947 -0.3568
vn 0.4089 0.6617 -0.6284
vn -0.1024 0.9435 -0.3151
vn -0.1876 0.7947 -0.5773
vn -0.4713 0.6617 -0.5831
vn -0.3313 0.9435 -0.0000
vn -0.6071 0.7947 -0.0000
vn -0.7002 0.6617 0.2680
vn -0.1024 0.9435 0.3151
vn -0.1876 0.7947 0.5773
vn 0.0385 0.6617 0.7488
vn 0.2680 0.9435 0.1947
vn 0.4911 0.7947 0.3568
vn 0.7240 0.6617 0.1947
vn 0.8897 0.3304 -0.3151
vn 0.7947 0.1876 -0.5773
vn 0.5746 0.3304 -0.7488
vn -0.0247 0.3304 -0.9435
vn -0.3035 0.1876 -0.9342
vn -0.5346 0.3304 -0.7779
vn -0.9050 0.3304 -0.2680
vn -0.9822 0.1876 -0.0000
vn -0.9050 0.3304 0.2680
vn -0.5346 0.3304 0.7779
vn -0.3035 0.1876 0.9342
vn -0.0247 0.3304 0.9435
vn 0.5746 0.3304 0.7488
vn 0.7947 0.1876 0.5773
vn 0.8897 0.3304 0.3151
vn 0.3066 0.1256 -0.9435
vn 0.3035 -0.1876 -0.9342
vn 0.0247 -0.3304 -0.9435
vn -0.8026 0.1256 -0.5831
vn -0.7947 -0.1876 -0.5773
vn -0.8897 -0.3304 -0.3151
vn -0.8026 0.1256 0.5831
vn -0.7947 -0.1876 0.5773
vn -0.5746 -0.3304 0.7488
vn 0.3066 0.1256 0.9435
vn 0.3035 -0.1876 0.9342
vn 0.5346 -0.3304 0.7779
vn 0.9921 0.1256 -0.0000
vn 0.9822 -0.1876 -0.0000
vn 0.9050 -0.3304 -0.2680
vn 0.4713 -0.6617 -0.5831
vn 0.1876 -0.7947 -0.5773
vn -0.0385 -0.6617 -0.7488
vn -0.4089 -0.6617 -0.6284
vn -0.4911 -0.7947 -0.3568
vn -0.7240 -0.6617 -0.1947
vn -0.7240 -0.6617 0.1947
vn -0.4911 -0.7947 0.3568
vn -0.4089 -0.6617 0.6284
vn 0.7002 -0.6617 -0.2680
vn 0.6071 -0.7947 -0.0000
vn 0.3313 -0.9435 -0.0000
vn -0.0385 -0.6617 0.7488
vn 0.1876 -0.7947 0.5773
vn 0.4713 -0.6617 0.5831
vt 0.181819 0.000000
vt 0.227273 0.078731
vt 0.136365 0.078731
vt 0.272728 0.157461
vt 0.318182 0.078731
vt 0.363637 0.157461
vt 0.909091 0.000000
vt 0.954545 0.078731
vt 0.863636 0.078731
vt 0.727273 0.000000
vt 0.772727 0.078731
vt 0.681818 0.078731
vt 0.545455 0.000000
vt 0.590909 0.078731
vt 0.500000 0.078731
vt 0.318182 0.236191
vt 0.090910 0.157461
vt 0.181819 0.157461
vt 0.136365 0.236191
vt 0.818182 0.157461
vt 0.909091 0.157461
vt 0.863636 0.236191
vt 0.636364 0.157461
vt 0.727273 0.157461
vt 0.681818 0.236191
vt 0.454546 0.157461
vt 0.545455 0.157461
vt 0.500000 0.236191
vt 0.227273 0.236191
vt 0.045455 0.236191
vt 0.772727 0.236191
vt 0.590909 0.236191
vt 0.409092 0.236191
vt 0.181819 0.314921
vt 0.272728 0.314921
vt 0.227273 0.393651
vt 0.000000 0.314921
vt 0.090910 0.314921
vt 0.045455 0.393651
vt 0.727273 0.314921
vt 0.818182 0.314921
vt 0.772727 0.393651
vt 0.545455 0.314921
vt 0.636364 0.314921
vt 0.590909 0.393651
vt 0.363637 0.314921
vt 0.454546 0.314921
vt 0.409092 0.393651
vt 0.500000 0.393651
vt 0.454546 0.472382
vt 0.681818 0.393651
vt 0.636364 0.472382
vt 0.863636 0.393651
vt 0.818182 0.472382
vt 0.909091 0.314921
vt 0.136365 0.393651
vt 0.090910 0.472382
vt 0.318182 0.393651
vt 0.272728 0.472382
vt 0.954545 0.236191
vt 1.000000 0.157461
vt 0.409092 0.078731
vt 0.363637 0.000000
s 0
f 14/26/12 27/27/12 26/28/12
f 15/29/13 27/30/13 29/31/13
f 14/32/14 26/33/14 31/34/14
f 14/35/15 31/36/15 33/37/15
f 14/38/16 33/39/16 30/40/16
f 15/29/17 29/31/17 36/41/17
f 16/42/18 28/43/18 38/44/18
f 17/45/19 32/46/19 40/47/19
f 18/48/20 34/49/20 42/50/20
f 19/51/21 35/52/21 44/53/21
f 15/29/22 36/41/22 39/54/22
f 16/42/23 38/44/23 41/55/23
f 17/45/24 40/47/24 43/56/24
f 18/48/25 42/50/25 45/57/25
f 19/51/26 44/53/26 37/58/26
f 20/59/27 46/60/27 51/61/27
f 21/62/28 47/63/28 53/64/28
f 22/65/29 48/66/29 54/67/29
f 23/68/30 49/69/30 55/70/30
f 24/71/31 50/72/31 52/73/31
f 52/73/32 55/74/32 25/75/32
f 52/73/33 50/72/33 55/74/33
f 50/72/34 23/68/34 55/74/34
f 55/70/35 54/76/35 25/77/35
f 55/70/36 49/69/36 54/76/36
f 49/69/37 22/65/37 54/76/37
f 54/67/38 53/78/38 25/79/38
f 54/67/39 48/66/39 53/78/39
f 48/66/40 21/80/40 53/78/40
f 53/64/41 51/81/41 25/82/41
f 53/64/42 47/63/42 51/81/42
f 47/63/43 20/59/43 51/81/43
f 51/61/44 52/83/44 25/84/44
f 51/61/45 46/60/45 52/83/45
f 46/60/46 24/71/46 52/83/46
f 37/58/47 50/72/47 24/71/47
f 37/58/48 44/53/48 50/72/48
f 44/53/49 23/68/49 50/72/49
f 45/57/50 49/69/50 23/68/50
f 45/57/51 42/50/51 49/69/51
f 42/50/52 22/65/52 49/69/52
f 43/56/53 48/66/53 22/65/53
f 43/56/54 40/47/54 48/66/54
f 40/47/55 21/80/55 48/66/55
f 41/55/56 47/63/56 21/62/56
f 41/55/57 38/44/57 47/63/57
f 38/44/58 20/59/58 47/63/58
f 39/54/59 46/60/59 20/59/59
f 39/54/60 36/41/60 46/60/60
f 36/41/61 24/71/61 46/60/61
f 44/53/62 45/57/62 23/68/62
f 44/53/63 35/52/63 45/57/63
f 35/52/64 18/48/64 45/57/64
f 42/50/65 43/56/65 22/65/65
f 42/50/66 34/49/66 43/56/66
f 34/49/67 17/45/67 43/56/67
f 40/47/68 41/85/68 21/80/68
f 40/47/69 32/46/69 41/85/69
f 32/46/70 16/86/70 41/85/70
f 38/44/71 39/54/71 20/59/71
f 38/44/72 28/43/72 39/54/72
f 28/43/73 15/29/73 39/54/73
f 36/41/74 37/58/74 24/71/74
f 36/41/75 29/31/75 37/58/75
f 29/31/76 19/51/76 37/58/76
f 30/40/77 35/52/77 19/51/77
f 30/40/78 33/39/78 35/52/78
f 33/39/79 18/48/79 35/52/79
f 33/37/80 34/49/80 18/48/80
f 33/37/81 31/36/81 34/49/81
f 31/36/82 17/45/82 34/49/82
f 31/34/83 32/46/83 17/45/83
f 31/34/84 26/33/84 32/46/84
f 26/33/85 16/86/85 32/46/85
f 29/31/86 30/87/86 19/51/86
f 29/31/87 27/30/87 30/87/87
f 27/30/88 14/88/88 30/87/88
f 26/28/89 28/43/89 16/42/89
f 26/28/90 27/27/90 28/43/90
f 27/27/91 15/29/91 28/43/91
